<?xml version="1.0" encoding="utf-8"?>
<!-- Generator: Adobe Illustrator 27.1.1, SVG Export Plug-In . SVG Version: 6.00 Build 0)  -->
<svg version="1.1" id="Layer_1" xmlns="http://www.w3.org/2000/svg" xmlns:xlink="http://www.w3.org/1999/xlink" x="0px" y="0px"
	 viewBox="0 0 2000 1250" style="enable-background:new 0 0 2000 1250;" xml:space="preserve">
<style type="text/css">
	.st0{fill:none;}
	.st1{fill:#E9531D;}
	.st2{fill:none;stroke:#FFFFFF;stroke-width:0;stroke-linecap:round;stroke-linejoin:round;}
	.st3{fill:#FFFFFF;}
	.st4{fill:none;stroke:#E9531D;stroke-width:0;stroke-linecap:round;stroke-linejoin:round;}
</style>
<g>
	<path class="st0" d="M645.05,536.79l-0.87,4.55c0.38-1.59,0.78-3.19,1.18-4.77L645.05,536.79z"/>
	<polygon class="st0" points="995.19,796.53 990.12,808.18 1000.17,808.24 	"/>
	<polygon class="st0" points="1226.64,715.87 1226.65,715.88 1226.65,715.88 	"/>
	<path class="st0" d="M1401.51,495.56l-0.03,0C1401.49,495.56,1401.5,495.56,1401.51,495.56L1401.51,495.56z"/>
	<polygon class="st0" points="1230.51,716.11 1230.56,716.09 1230.51,716.11 	"/>
	<path class="st1" d="M913.91,814.22c-0.94,0.66-2.19,0.99-3.78,0.98c-1.84-0.01-3.47-0.35-4.92-1.01
		c-1.44-0.66-2.87-1.61-4.28-2.84l-3.11,3.65c1.74,1.59,3.64,2.78,5.69,3.56c2.05,0.78,4.21,1.17,6.46,1.18
		c1.53,0.01,2.93-0.18,4.21-0.56c1.28-0.38,2.37-0.95,3.29-1.69s1.63-1.66,2.15-2.74c0.52-1.08,0.78-2.32,0.79-3.71
		c0.01-1.22-0.19-2.29-0.59-3.19c-0.4-0.9-0.99-1.7-1.76-2.39c-0.78-0.69-1.76-1.27-2.94-1.75c-1.18-0.48-2.54-0.92-4.07-1.31
		c-1.39-0.34-2.54-0.67-3.44-0.98c-0.91-0.31-1.61-0.65-2.13-1.01c-0.51-0.36-0.87-0.76-1.06-1.17c-0.19-0.42-0.29-0.92-0.29-1.5
		c0.01-0.97,0.43-1.8,1.27-2.47c0.84-0.68,2.01-1.01,3.51-1c1.33,0.01,2.65,0.27,3.96,0.79c1.3,0.52,2.62,1.27,3.95,2.25l2.77-3.86
		c-1.49-1.2-3.1-2.12-4.8-2.76s-3.63-0.96-5.77-0.97c-1.45-0.01-2.78,0.19-4,0.58c-1.22,0.4-2.27,0.97-3.15,1.71
		c-0.87,0.75-1.56,1.64-2.06,2.68c-0.5,1.04-0.76,2.2-0.76,3.48c-0.01,1.36,0.2,2.52,0.63,3.46c0.43,0.95,1.05,1.76,1.87,2.43
		c0.82,0.67,1.83,1.23,3.04,1.69c1.21,0.45,2.59,0.86,4.15,1.23c1.37,0.34,2.47,0.67,3.32,0.98c0.85,0.31,1.51,0.64,2,0.99
		c0.49,0.35,0.82,0.73,1,1.15c0.18,0.42,0.27,0.89,0.26,1.42C915.32,812.66,914.85,813.56,913.91,814.22z"/>
	<polygon class="st1" points="949.64,819.55 954.81,819.58 954.95,795.14 964.21,795.19 964.24,790.44 940.55,790.31 940.52,795.06 
		949.78,795.11 	"/>
	<path class="st1" d="M988.22,812.72l13.8,0.08l2.92,7.06l5.42,0.03l-12.68-29.47l-4.75-0.03l-13.01,29.33l5.26,0.03L988.22,812.72z
		 M995.19,796.53l4.98,11.71l-10.05-0.06L995.19,796.53z"/>
	<polygon class="st1" points="1037.2,808.15 1051.93,808.23 1051.95,803.6 1037.23,803.52 1037.27,795.47 1053.87,795.56 
		1053.9,790.94 1032.21,790.82 1032.05,820.01 1037.14,820.04 	"/>
	<polygon class="st1" points="1081.25,808.4 1095.96,808.48 1095.99,803.85 1081.27,803.77 1081.32,795.72 1097.91,795.81 
		1097.94,791.18 1076.25,791.06 1076.09,820.25 1081.18,820.28 	"/>
	<path class="st1" d="M1313.62,756.76c-3.3,2.14-7.11,3.23-10.9,3.23c-0.17,0-0.34-0.01-0.51-0.02
		c-24.42,56.39-63.7,104.88-112.89,140.5c-55.97,40.53-124.72,64.41-199.12,64.41c-76.45,0-146.93-25.21-203.71-67.78
		c-46.34-34.75-83.51-81.07-107.23-134.65l-26.11-22.85c23.31,68.58,66.93,127.75,123.71,170.33
		c59.43,44.57,133.34,70.99,213.33,70.99c77.85,0,149.94-25.02,208.53-67.46c56.08-40.61,99.83-97.18,124.64-163.06l-9.72,6.34
		L1313.62,756.76z"/>
	<path class="st1" d="M803.17,341.16c53.66-35.43,117.9-56.04,187.03-56.04c72.75,0,140.09,22.83,195.37,61.73
		c50.69,35.67,91.18,84.87,116.26,142.31l10.12,0.65l4.13-8.09c-26.3-59.73-68.51-110.84-121.28-147.98
		c-57.87-40.73-128.48-64.66-204.6-64.66c-72.33,0-139.69,21.6-195.86,58.7c-53.31,35.21-96.58,84.37-124.62,142.29l29.71-21.11
		C725.6,405.81,761.12,368.93,803.17,341.16z"/>
	<path class="st1" d="M1330.08,625c0,27.3-3.23,53.82-9.29,79.24l19.06-12.42c4.11-21.65,6.28-43.98,6.28-66.82
		c0-31.42-4.09-61.9-11.75-90.93l-11.28,22.09C1327.66,578.38,1330.08,601.4,1330.08,625z"/>
	<path class="st1" d="M666.32,521.67l-20.96,14.9c-0.4,1.59-0.8,3.18-1.18,4.77l-6.23,32.47c-2.41,16.72-3.67,33.8-3.67,51.18
		c0,16.12,1.08,32,3.16,47.57l18.91,16.55c-3.96-20.76-6.04-42.19-6.04-64.11C650.32,588.95,655.95,554.25,666.32,521.67z"/>
	<line class="st2" x1="1401.51" y1="495.56" x2="1401.51" y2="495.56"/>
	<polygon class="st3" points="973.38,599.14 973.39,599.13 973.39,599.13 	"/>
	<polygon class="st3" points="1401.47,495.56 1401.48,495.56 1401.51,495.56 	"/>
	<polygon class="st3" points="1003.99,736.92 1003.97,736.91 1003.97,736.91 	"/>
	<polygon class="st3" points="607.19,521.34 607.19,521.34 607.19,521.32 	"/>
	<path class="st3" d="M1406.88,672.04c0.01,0.01,0.01,0.02,0.02,0.03c0,0.01,0.01,0.01,0.01,0.02L1406.88,672.04z"/>
	<line class="st4" x1="821.33" y1="547.25" x2="821.33" y2="547.25"/>
	<path class="st1" d="M1400.73,507.57l-64.23-4.14l31.01-60.68c2.01-3.95,0.45-8.77-3.5-10.8c-1.17-0.59-2.42-0.88-3.64-0.88
		c-2.92,0-5.73,1.6-7.15,4.38l-34.15,66.87l-3.3-0.21l-54.44-3.51c-4.43-0.27-8.24,3.08-8.52,7.49c-0.02,0.18-0.02,0.35-0.02,0.53
		c0,4.2,3.26,7.73,7.51,7.99l50.82,3.27l-87,170.28l-90.29,41.18l-27.48-18.69l21.11-100.94l65.65-71.09
		c0.74-0.79,1.3-1.73,1.67-2.74l39.96-112.76c2.77-7.81-6.7-14.15-12.86-8.61l-84.21,75.66c-1.27,1.12-2.13,2.63-2.49,4.3
		l-22.5,107.63l-99.32,107.52l-32.3-20.45l19.67-83.59c1.01-4.32-1.65-8.63-5.97-9.66c-0.61-0.14-1.23-0.21-1.84-0.21
		c-3.64,0-6.93,2.49-7.8,6.18L964.9,687.7l-33.89,19.87l-41.42-29.59l17.24-82.54c0.91-4.35-1.88-8.58-6.21-9.5
		c-0.55-0.11-1.09-0.18-1.64-0.18c-3.72,0-7.06,2.6-7.86,6.38l-17.76,85.03L748.1,785.39l-97.73-85.53l-41.83-36.6l25.62-133.47
		l27.53-19.57L737,456.71l116.44,25.04l-39.57,49.2c-2.79,3.45-2.23,8.5,1.22,11.28c1.48,1.19,3.26,1.76,5.02,1.76
		c2.34,0,4.67-1.01,6.26-2.98l47.75-59.38c3.72-4.64,1.27-11.57-4.54-12.82l-132.67-28.52c-2.18-0.48-4.48-0.02-6.3,1.28
		l-57.97,41.19l-50.41,35.82c-1.67,1.2-2.82,3-3.21,5.02L591.9,664.76c-0.53,2.79,0.45,5.66,2.6,7.52l63.17,55.27l85.14,74.51
		c3,2.61,7.47,2.63,10.49,0.03l127.84-110.44l44.78,31.98c2.57,1.84,5.97,1.99,8.69,0.4l37.15-21.78l38.66,24.49
		c3.26,2.07,7.52,1.51,10.14-1.33l85.7-92.78l-16.73,79.99c-0.66,3.16,0.66,6.42,3.34,8.24l35.67,24.25
		c2.31,1.57,5.26,1.83,7.8,0.67l89.14-40.63c2.44-1.12,5.28-0.93,7.56,0.5l65.43,41.05c2.65,1.65,6,1.64,8.61-0.06l11.95-7.8
		l75.44-49.15c3.72-2.42,4.76-7.39,2.34-11.1c-1.52-2.36-4.09-3.64-6.7-3.64c-1.51,0-3.03,0.42-4.38,1.3l-59.36,38.69l-23.72,15.45
		l-62.16-39.01l83.75-163.93l4.33-8.47l71.15,4.56c4.41,0.29,8.23-3.06,8.52-7.47C1408.5,511.66,1405.15,507.84,1400.73,507.57z
		 M1133.84,579.16l16.49-78.82l58.72-52.76l-28.84,81.37L1133.84,579.16z"/>
</g>
</svg>
