<?xml version="1.0" encoding="utf-8"?>
<!-- Generator: Adobe Illustrator 27.1.1, SVG Export Plug-In . SVG Version: 6.00 Build 0)  -->
<svg version="1.1" id="Layer_1" xmlns="http://www.w3.org/2000/svg" xmlns:xlink="http://www.w3.org/1999/xlink" x="0px" y="0px"
	 viewBox="0 0 2000 1250" style="enable-background:new 0 0 2000 1250;" xml:space="preserve">
<style type="text/css">
	.st0{fill:none;}
	.st1{fill:#E9531D;}
	.st2{fill:#FFFFFF;}
	.st3{fill:none;stroke:#E9531D;stroke-width:0;stroke-linecap:round;stroke-linejoin:round;}
</style>
<g>
	<g>
		<path class="st0" d="M645.05,536.79l-0.95,4.95c0.41-1.73,0.82-3.45,1.26-5.17L645.05,536.79z"/>
		<path class="st0" d="M638,573.51l-16.36,85.23l15.81,13.83c-2.08-15.57-3.18-31.44-3.17-47.58
			C634.28,607.51,635.56,590.32,638,573.51z"/>
		<path class="st1" d="M749.87,384.67c61.53-61.52,146.45-99.54,240.33-99.55c93.88,0,178.8,38.03,240.33,99.55
			c29.86,29.86,54.16,65.25,71.29,104.48l10.14,0.65l4.12-8.07c-17.92-40.7-43.21-77.41-74.2-108.4
			c-64.38-64.4-153.41-104.25-251.67-104.25c-98.26,0-187.29,39.85-251.67,104.25c-28.02,28.01-51.38,60.7-68.85,96.77l29.72-21.11
			C713.61,425.55,730.58,403.96,749.87,384.67z"/>
		<path class="st1" d="M1313.63,756.74c-3.3,2.15-7.11,3.24-10.92,3.24c-0.17,0-0.34-0.01-0.51-0.02
			c-17.15,39.59-41.59,75.28-71.67,105.37c-61.53,61.52-146.45,99.54-240.33,99.55c-93.88,0-178.8-38.03-240.33-99.55
			c-29.45-29.45-53.49-64.27-70.58-102.86l-26.15-22.89c17.74,52.2,47.26,98.97,85.39,137.09
			c64.38,64.4,153.41,104.25,251.67,104.25c98.26,0,187.29-39.85,251.67-104.25c35.47-35.47,63.48-78.42,81.5-126.27l-9.73,6.34
			L1313.63,756.74z"/>
		<path class="st1" d="M1330.07,625c0,27.29-3.24,53.81-9.3,79.23l19.05-12.41c4.11-21.65,6.29-43.98,6.29-66.82
			c0-31.43-4.09-61.9-11.75-90.94l-11.28,22.08C1327.67,578.37,1330.07,601.4,1330.07,625z"/>
		<path class="st1" d="M666.33,521.67l-20.97,14.9c-0.44,1.72-0.85,3.44-1.26,5.17l-6.1,31.77c-2.44,16.82-3.72,34-3.72,51.49
			c0,16.13,1.09,32.01,3.17,47.58l18.94,16.57c-3.97-20.77-6.07-42.21-6.07-64.15C650.32,588.96,655.95,554.25,666.33,521.67z"/>
		<polygon class="st2" points="1262.09,486.6 1262.1,486.6 1262.1,486.6 		"/>
		<polygon class="st2" points="1342.51,429.98 1342.51,429.98 1342.52,429.97 		"/>
		<polygon class="st2" points="723.62,431.77 723.63,431.77 723.64,431.76 		"/>
		<polygon class="st2" points="1213.82,405.56 1213.82,405.56 1213.83,405.55 		"/>
		<polygon class="st2" points="807.55,551.59 807.55,551.59 807.54,551.59 		"/>
		<line class="st3" x1="821.33" y1="547.24" x2="821.33" y2="547.24"/>
		<path class="st1" d="M1408.22,516.08c0.28-4.42-3.07-8.23-7.49-8.52l-64.22-4.12l31-60.69c2.02-3.94,0.45-8.78-3.49-10.79
			c-3.94-2.02-8.78-0.45-10.79,3.49l-34.16,66.87l-57.74-3.71c-4.42-0.28-8.23,3.07-8.52,7.49l0,0c-0.28,4.42,3.07,8.23,7.49,8.52
			l50.82,3.26l-87,170.29l-90.31,41.17l-27.47-18.68l21.11-100.94l65.66-71.09c0.73-0.8,1.3-1.73,1.66-2.75l39.96-112.75
			c2.25-6.34-3.59-11.72-9.16-10.54c-0.43,0.09-0.86,0.22-1.28,0.39c-0.84,0.34-1.67,0.85-2.44,1.54l-84.21,75.65
			c-1.26,1.14-2.13,2.65-2.48,4.31l-22.51,107.62l-99.32,107.53l-32.3-20.46l19.67-83.59c1.01-4.31-1.66-8.63-5.97-9.64
			c-4.31-1.01-8.63,1.66-9.64,5.97l-20.19,85.8L931,707.57l-41.41-29.58l17.25-82.55c0.91-4.34-1.87-8.59-6.21-9.49
			c-0.54-0.11-1.08-0.17-1.62-0.17c-3.73-0.02-7.08,2.59-7.88,6.38l-17.77,85.02L748.11,785.38L608.53,663.25l25.62-133.47
			l102.86-73.08l116.43,25.04l-39.58,49.2c-2.78,3.45-2.23,8.5,1.22,11.28h0c0.86,0.69,1.82,1.18,2.83,1.47
			c0.5,0.14,1.01,0.23,1.52,0.28c2.57,0.21,5.19-0.81,6.92-2.97l47.76-59.38c3.73-4.63,1.27-11.57-4.55-12.82l-132.66-28.53
			c-2.19-0.47-4.48,0-6.31,1.3l-108.38,77.01c-0.84,0.6-1.55,1.34-2.09,2.19c-0.27,0.43-0.51,0.88-0.7,1.35
			c-0.19,0.47-0.33,0.96-0.43,1.47l-27.1,141.18c-0.53,2.79,0.45,5.65,2.59,7.52l148.32,129.78c3,2.62,7.47,2.64,10.49,0.03
			l127.85-110.43l44.79,31.99c2.56,1.83,5.97,1.99,8.69,0.39l37.15-21.78l38.67,24.49c3.26,2.06,7.53,1.5,10.15-1.33l85.7-92.78
			l-16.73,79.99c-0.66,3.17,0.65,6.42,3.33,8.24l35.67,24.26c2.31,1.57,5.27,1.82,7.81,0.66l89.12-40.63
			c1.22-0.56,2.54-0.79,3.84-0.7c0.33,0.02,0.65,0.06,0.97,0.12c0.96,0.18,1.89,0.54,2.75,1.08l65.43,41.05
			c1.65,1.04,3.58,1.41,5.43,1.13c0.37-0.06,0.74-0.14,1.1-0.25c0.72-0.22,1.42-0.54,2.07-0.96l87.4-56.94
			c3.71-2.42,4.76-7.39,2.34-11.1c-2.42-3.71-7.39-4.76-11.1-2.34l-83.09,54.13l-62.15-39L1328.56,519l71.14,4.57
			C1404.12,523.85,1407.94,520.5,1408.22,516.08L1408.22,516.08z M1150.33,500.33l58.72-52.75l-28.84,81.38l-46.36,50.2
			L1150.33,500.33z"/>
	</g>
	<g>
		<path class="st1" d="M842.65,816.88c-0.82,0.62-1.71,1.16-2.66,1.61c-0.95,0.45-1.99,0.8-3.11,1.02
			c-1.13,0.23-2.37,0.34-3.73,0.33c-2.14-0.01-4.11-0.41-5.91-1.2s-3.36-1.86-4.67-3.22c-1.31-1.35-2.34-2.95-3.08-4.79
			s-1.1-3.82-1.09-5.93c0.01-2.08,0.39-4.04,1.14-5.87c0.75-1.83,1.79-3.43,3.13-4.8c1.34-1.37,2.93-2.44,4.77-3.23
			c1.84-0.78,3.87-1.17,6.1-1.15c1.33,0.01,2.55,0.13,3.65,0.35c1.1,0.23,2.11,0.55,3.02,0.95c0.91,0.41,1.76,0.89,2.54,1.45
			c0.78,0.56,1.51,1.18,2.2,1.85l-3.32,3.78c-1.16-1.09-2.4-1.98-3.7-2.65c-1.3-0.67-2.79-1.02-4.46-1.02
			c-1.39-0.01-2.68,0.26-3.86,0.79c-1.19,0.54-2.21,1.27-3.08,2.19c-0.87,0.93-1.54,2.02-2.02,3.26c-0.48,1.25-0.72,2.6-0.73,4.04
			c-0.01,1.45,0.22,2.8,0.69,4.07c0.47,1.27,1.13,2.38,1.98,3.33c0.86,0.95,1.87,1.7,3.05,2.25c1.18,0.55,2.46,0.83,3.85,0.83
			c1.78,0.01,3.31-0.32,4.59-1c1.28-0.68,2.55-1.59,3.81-2.75l3.28,3.36C844.27,815.54,843.48,816.26,842.65,816.88z"/>
		<path class="st1" d="M895,819.69l-5.42-0.03l-2.92-7.06l-13.8-0.08l-3.04,7.03l-5.25-0.03l13.01-29.33l4.75,0.03L895,819.69z
			 M879.82,796.33l-5.07,11.65l10.05,0.06L879.82,796.33z"/>
		<path class="st1" d="M925.28,819.86l-5.17-0.03l0.13-24.44l-9.26-0.05l0.03-4.75l23.69,0.13l-0.03,4.75l-9.26-0.05L925.28,819.86z
			"/>
		<path class="st1" d="M978.38,795.59l-16.51-0.09l-0.04,7.51l14.64,0.08l-0.03,4.63l-14.64-0.08l-0.04,7.8l16.72,0.09l-0.03,4.63
			l-21.81-0.12l0.16-29.19l21.6,0.12L978.38,795.59z"/>
		<path class="st1" d="M1019.99,820.38l-7.14-10.22l-6.44-0.04l-0.06,10.18l-5.09-0.03l0.16-29.19l13.01,0.07
			c1.67,0.01,3.18,0.23,4.52,0.67c1.35,0.44,2.48,1.05,3.41,1.85c0.93,0.8,1.64,1.77,2.13,2.93c0.49,1.16,0.74,2.45,0.73,3.86
			c-0.01,1.22-0.19,2.31-0.54,3.27c-0.35,0.96-0.84,1.8-1.45,2.54c-0.62,0.73-1.35,1.35-2.2,1.86c-0.85,0.51-1.79,0.9-2.82,1.17
			l7.82,11.1L1019.99,820.38z M1018.44,797.05c-1.06-0.83-2.55-1.25-4.47-1.26l-7.49-0.04l-0.05,9.84l7.53,0.04
			c1.84,0.01,3.31-0.43,4.4-1.32c1.09-0.89,1.64-2.09,1.65-3.59C1020.02,799.1,1019.5,797.88,1018.44,797.05z"/>
		<path class="st1" d="M1053.64,791.38l-0.16,29.19l-5.09-0.03l0.16-29.19L1053.64,791.38z"/>
		<path class="st1" d="M1098.51,791.62l5.09,0.03l-0.16,29.19l-4.29-0.02l-15.95-20.86l-0.12,20.77l-5.09-0.03l0.16-29.19l4.74,0.03
			l15.5,20.27L1098.51,791.62z"/>
		<path class="st1" d="M1151.26,818.82c-0.88,0.55-1.83,1.03-2.84,1.44c-1.02,0.41-2.11,0.73-3.28,0.96
			c-1.17,0.23-2.39,0.34-3.67,0.33c-2.28-0.01-4.35-0.41-6.21-1.18c-1.86-0.78-3.44-1.84-4.76-3.2c-1.32-1.36-2.33-2.95-3.04-4.79
			c-0.71-1.84-1.06-3.83-1.05-5.97c0.01-2.06,0.39-4,1.14-5.83c0.75-1.83,1.79-3.43,3.13-4.8c1.34-1.37,2.94-2.45,4.79-3.25
			c1.85-0.8,3.88-1.19,6.07-1.17c1.28,0.01,2.44,0.1,3.48,0.29c1.04,0.19,2.01,0.45,2.89,0.79c0.89,0.34,1.73,0.75,2.52,1.25
			c0.79,0.49,1.56,1.06,2.3,1.7l-3.27,3.86c-0.55-0.48-1.12-0.91-1.7-1.3c-0.58-0.39-1.19-0.72-1.83-0.99
			c-0.64-0.27-1.34-0.48-2.1-0.64c-0.76-0.16-1.6-0.24-2.52-0.24c-1.33-0.01-2.58,0.26-3.73,0.8c-1.16,0.54-2.16,1.28-3.02,2.22
			c-0.85,0.94-1.53,2.04-2.02,3.29c-0.49,1.25-0.74,2.59-0.75,4.01c-0.01,1.51,0.22,2.9,0.68,4.18c0.47,1.28,1.13,2.4,2.01,3.33
			c0.87,0.94,1.91,1.68,3.12,2.21c1.21,0.53,2.56,0.81,4.06,0.82c1.39,0.01,2.69-0.19,3.9-0.59c1.21-0.4,2.26-0.93,3.16-1.59
			l0.03-5.49l-7.47-0.04l0.03-4.46l12.43,0.07l-0.07,12.26C1152.94,817.69,1152.14,818.27,1151.26,818.82z"/>
	</g>
</g>
</svg>
