<?xml version="1.0" standalone="no"?>
<!DOCTYPE svg PUBLIC "-//W3C//DTD SVG 20010904//EN"
 "http://www.w3.org/TR/2001/REC-SVG-20010904/DTD/svg10.dtd">
<svg version="1.0" xmlns="http://www.w3.org/2000/svg"
 width="512.000000pt" height="512.000000pt" viewBox="0 0 512.000000 512.000000"
 preserveAspectRatio="xMidYMid meet">

<g transform="translate(0.000000,512.000000) scale(0.100000,-0.100000)"
fill="#000000" stroke="none">
<path d="M25 5095 c-56 -55 -128 23 1202 -1307 l1228 -1228 -1228 -1228
c-1330 -1330 -1258 -1252 -1202 -1307 55 -56 -23 -128 1307 1202 l1228 1228
1228 -1228 c1330 -1330 1252 -1258 1307 -1202 56 55 128 -23 -1202 1307
l-1228 1228 1228 1228 c1330 1330 1258 1252 1202 1307 -55 56 23 128 -1307
-1202 l-1228 -1228 -1228 1228 c-1330 1330 -1252 1258 -1307 1202z"/>
</g>
</svg>
